<mxfile host="app.diagrams.net" modified="2024-02-02T21:16:26.790Z" agent="Mozilla/5.0 (Windows NT 10.0; Win64; x64) AppleWebKit/537.36 (KHTML, like Gecko) Chrome/120.0.0.0 Safari/537.36" etag="ZF53g_GQG6i2B4FSQP_v" version="23.1.1" type="device">
  <diagram name="Seite-1" id="f8H3DpuMTvynsyB06MXm">
    <mxGraphModel dx="683" dy="351" grid="1" gridSize="10" guides="1" tooltips="1" connect="1" arrows="1" fold="1" page="1" pageScale="1" pageWidth="827" pageHeight="1169" math="0" shadow="0">
      <root>
        <mxCell id="0" />
        <mxCell id="1" parent="0" />
        <mxCell id="a4meFcf4SPbzr9SaP956-16" style="edgeStyle=orthogonalEdgeStyle;rounded=0;orthogonalLoop=1;jettySize=auto;html=1;exitX=0.5;exitY=1;exitDx=0;exitDy=0;entryX=0.5;entryY=0;entryDx=0;entryDy=0;strokeColor=#0B4D6A;" parent="1" source="a4meFcf4SPbzr9SaP956-1" target="a4meFcf4SPbzr9SaP956-4" edge="1">
          <mxGeometry relative="1" as="geometry" />
        </mxCell>
        <mxCell id="a4meFcf4SPbzr9SaP956-1" value="&lt;font style=&quot;font-size: 20px;&quot;&gt;Initialize&lt;/font&gt;" style="ellipse;whiteSpace=wrap;html=1;labelBackgroundColor=none;fillColor=#09555B;strokeColor=#BAC8D3;fontColor=#EEEEEE;" parent="1" vertex="1">
          <mxGeometry x="86" y="115" width="116" height="50" as="geometry" />
        </mxCell>
        <mxCell id="a4meFcf4SPbzr9SaP956-17" style="edgeStyle=orthogonalEdgeStyle;rounded=0;orthogonalLoop=1;jettySize=auto;html=1;exitX=1;exitY=0.25;exitDx=0;exitDy=0;entryX=0;entryY=0.5;entryDx=0;entryDy=0;strokeColor=#0B4D6A;" parent="1" source="a4meFcf4SPbzr9SaP956-4" target="a4meFcf4SPbzr9SaP956-6" edge="1">
          <mxGeometry relative="1" as="geometry" />
        </mxCell>
        <mxCell id="a4meFcf4SPbzr9SaP956-28" style="edgeStyle=orthogonalEdgeStyle;rounded=0;orthogonalLoop=1;jettySize=auto;html=1;exitX=0.5;exitY=1;exitDx=0;exitDy=0;entryX=0.5;entryY=0;entryDx=0;entryDy=0;strokeColor=#0B4D6A;" parent="1" source="a4meFcf4SPbzr9SaP956-4" target="a4meFcf4SPbzr9SaP956-27" edge="1">
          <mxGeometry relative="1" as="geometry" />
        </mxCell>
        <mxCell id="a4meFcf4SPbzr9SaP956-4" value="&lt;font style=&quot;font-size: 14px;&quot;&gt;Setup of simulation&lt;/font&gt;" style="rounded=0;whiteSpace=wrap;html=1;labelBackgroundColor=none;fillColor=#09555B;strokeColor=#BAC8D3;fontColor=#EEEEEE;" parent="1" vertex="1">
          <mxGeometry x="84" y="460" width="120" height="60" as="geometry" />
        </mxCell>
        <mxCell id="a4meFcf4SPbzr9SaP956-19" style="edgeStyle=orthogonalEdgeStyle;rounded=0;orthogonalLoop=1;jettySize=auto;html=1;exitX=0.5;exitY=1;exitDx=0;exitDy=0;entryX=0.5;entryY=0;entryDx=0;entryDy=0;strokeColor=#0B4D6A;" parent="1" source="a4meFcf4SPbzr9SaP956-6" target="a4meFcf4SPbzr9SaP956-7" edge="1">
          <mxGeometry relative="1" as="geometry" />
        </mxCell>
        <mxCell id="a4meFcf4SPbzr9SaP956-6" value="&lt;font style=&quot;font-size: 12px;&quot;&gt;AMRCoreWavePropagation2d&lt;/font&gt;" style="shape=process;whiteSpace=wrap;html=1;backgroundOutline=1;labelBackgroundColor=none;fillColor=#09555B;strokeColor=#BAC8D3;fontColor=#EEEEEE;" parent="1" vertex="1">
          <mxGeometry x="390" y="110" width="210" height="60" as="geometry" />
        </mxCell>
        <mxCell id="a4meFcf4SPbzr9SaP956-20" style="edgeStyle=orthogonalEdgeStyle;rounded=0;orthogonalLoop=1;jettySize=auto;html=1;exitX=0.5;exitY=1;exitDx=0;exitDy=0;entryX=0.5;entryY=0;entryDx=0;entryDy=0;strokeColor=#0B4D6A;" parent="1" source="a4meFcf4SPbzr9SaP956-7" target="a4meFcf4SPbzr9SaP956-9" edge="1">
          <mxGeometry relative="1" as="geometry" />
        </mxCell>
        <mxCell id="a4meFcf4SPbzr9SaP956-7" value="&lt;font style=&quot;font-size: 12px;&quot;&gt;ReadParameters&lt;/font&gt;" style="shape=process;whiteSpace=wrap;html=1;backgroundOutline=1;labelBackgroundColor=none;fillColor=#09555B;strokeColor=#BAC8D3;fontColor=#EEEEEE;" parent="1" vertex="1">
          <mxGeometry x="430" y="210" width="130" height="60" as="geometry" />
        </mxCell>
        <mxCell id="a4meFcf4SPbzr9SaP956-21" style="edgeStyle=orthogonalEdgeStyle;rounded=0;orthogonalLoop=1;jettySize=auto;html=1;exitX=0.5;exitY=1;exitDx=0;exitDy=0;strokeColor=#0B4D6A;" parent="1" source="a4meFcf4SPbzr9SaP956-9" target="a4meFcf4SPbzr9SaP956-10" edge="1">
          <mxGeometry relative="1" as="geometry" />
        </mxCell>
        <mxCell id="a4meFcf4SPbzr9SaP956-9" value="&lt;font style=&quot;font-size: 12px;&quot;&gt;Resize to the levels&lt;/font&gt;" style="rounded=0;whiteSpace=wrap;html=1;strokeColor=#BAC8D3;fontColor=#EEEEEE;fillColor=#09555B;" parent="1" vertex="1">
          <mxGeometry x="431.25" y="310" width="127.5" height="60" as="geometry" />
        </mxCell>
        <mxCell id="a4meFcf4SPbzr9SaP956-22" style="edgeStyle=orthogonalEdgeStyle;rounded=0;orthogonalLoop=1;jettySize=auto;html=1;exitX=0.5;exitY=1;exitDx=0;exitDy=0;strokeColor=#0B4D6A;" parent="1" source="a4meFcf4SPbzr9SaP956-10" target="a4meFcf4SPbzr9SaP956-11" edge="1">
          <mxGeometry relative="1" as="geometry" />
        </mxCell>
        <mxCell id="a4meFcf4SPbzr9SaP956-10" value="&lt;font style=&quot;font-size: 12px;&quot;&gt;InitFromScratch&lt;/font&gt;" style="shape=process;whiteSpace=wrap;html=1;backgroundOutline=1;strokeColor=#BAC8D3;fontColor=#EEEEEE;fillColor=#09555B;" parent="1" vertex="1">
          <mxGeometry x="430" y="410" width="130" height="60" as="geometry" />
        </mxCell>
        <mxCell id="a4meFcf4SPbzr9SaP956-23" style="edgeStyle=orthogonalEdgeStyle;rounded=0;orthogonalLoop=1;jettySize=auto;html=1;exitX=0.5;exitY=1;exitDx=0;exitDy=0;strokeColor=#0B4D6A;" parent="1" source="a4meFcf4SPbzr9SaP956-11" target="a4meFcf4SPbzr9SaP956-12" edge="1">
          <mxGeometry relative="1" as="geometry" />
        </mxCell>
        <mxCell id="a4meFcf4SPbzr9SaP956-11" value="&lt;font style=&quot;font-size: 12px;&quot;&gt;MakeNewGrids&lt;/font&gt;" style="shape=process;whiteSpace=wrap;html=1;backgroundOutline=1;strokeColor=#BAC8D3;fontColor=#EEEEEE;fillColor=#09555B;" parent="1" vertex="1">
          <mxGeometry x="431.25" y="510" width="127.5" height="60" as="geometry" />
        </mxCell>
        <mxCell id="a4meFcf4SPbzr9SaP956-177" style="edgeStyle=orthogonalEdgeStyle;rounded=0;orthogonalLoop=1;jettySize=auto;html=1;exitX=0.5;exitY=1;exitDx=0;exitDy=0;strokeColor=#0B4D6A;" parent="1" source="a4meFcf4SPbzr9SaP956-12" target="a4meFcf4SPbzr9SaP956-13" edge="1">
          <mxGeometry relative="1" as="geometry" />
        </mxCell>
        <mxCell id="a4meFcf4SPbzr9SaP956-12" value="&lt;font style=&quot;font-size: 12px;&quot;&gt;MakeNewLevelFromScratch&lt;/font&gt;" style="shape=process;whiteSpace=wrap;html=1;backgroundOutline=1;strokeColor=#BAC8D3;fontColor=#EEEEEE;fillColor=#09555B;" parent="1" vertex="1">
          <mxGeometry x="394.68" y="610" width="200.63" height="60" as="geometry" />
        </mxCell>
        <mxCell id="a4meFcf4SPbzr9SaP956-25" style="edgeStyle=orthogonalEdgeStyle;rounded=0;orthogonalLoop=1;jettySize=auto;html=1;exitX=0.5;exitY=1;exitDx=0;exitDy=0;entryX=0.5;entryY=0;entryDx=0;entryDy=0;strokeColor=#0B4D6A;" parent="1" source="a4meFcf4SPbzr9SaP956-13" target="a4meFcf4SPbzr9SaP956-15" edge="1">
          <mxGeometry relative="1" as="geometry" />
        </mxCell>
        <mxCell id="a4meFcf4SPbzr9SaP956-13" value="&lt;font style=&quot;font-size: 12px;&quot;&gt;InitData&lt;/font&gt;" style="shape=process;whiteSpace=wrap;html=1;backgroundOutline=1;strokeColor=#BAC8D3;fontColor=#EEEEEE;fillColor=#09555B;" parent="1" vertex="1">
          <mxGeometry x="430" y="710" width="130" height="60" as="geometry" />
        </mxCell>
        <mxCell id="a4meFcf4SPbzr9SaP956-26" style="edgeStyle=orthogonalEdgeStyle;rounded=0;orthogonalLoop=1;jettySize=auto;html=1;exitX=0;exitY=0.5;exitDx=0;exitDy=0;entryX=1;entryY=0.75;entryDx=0;entryDy=0;strokeColor=#0B4D6A;" parent="1" source="a4meFcf4SPbzr9SaP956-15" target="a4meFcf4SPbzr9SaP956-4" edge="1">
          <mxGeometry relative="1" as="geometry" />
        </mxCell>
        <mxCell id="a4meFcf4SPbzr9SaP956-15" value="&lt;font style=&quot;font-size: 12px;&quot;&gt;Compute time step dt&lt;/font&gt;" style="rounded=0;whiteSpace=wrap;html=1;strokeColor=#BAC8D3;fontColor=#EEEEEE;fillColor=#09555B;" parent="1" vertex="1">
          <mxGeometry x="430" y="810" width="130" height="60" as="geometry" />
        </mxCell>
        <mxCell id="a4meFcf4SPbzr9SaP956-79" style="edgeStyle=orthogonalEdgeStyle;rounded=0;orthogonalLoop=1;jettySize=auto;html=1;exitX=1;exitY=0.5;exitDx=0;exitDy=0;entryX=0;entryY=0.5;entryDx=0;entryDy=0;strokeColor=#0B4D6A;" parent="1" source="a4meFcf4SPbzr9SaP956-27" target="a4meFcf4SPbzr9SaP956-77" edge="1">
          <mxGeometry relative="1" as="geometry" />
        </mxCell>
        <mxCell id="a4meFcf4SPbzr9SaP956-27" value="&lt;font style=&quot;font-size: 20px;&quot;&gt;Evolve&lt;/font&gt;" style="shape=process;whiteSpace=wrap;html=1;backgroundOutline=1;strokeColor=#BAC8D3;fontColor=#EEEEEE;fillColor=#09555B;" parent="1" vertex="1">
          <mxGeometry x="100" y="1000" width="88" height="60" as="geometry" />
        </mxCell>
        <mxCell id="a4meFcf4SPbzr9SaP956-31" style="edgeStyle=orthogonalEdgeStyle;rounded=0;orthogonalLoop=1;jettySize=auto;html=1;exitX=1;exitY=0.5;exitDx=0;exitDy=0;entryX=0.5;entryY=0;entryDx=0;entryDy=0;strokeColor=#0B4D6A;" parent="1" source="a4meFcf4SPbzr9SaP956-29" target="a4meFcf4SPbzr9SaP956-30" edge="1">
          <mxGeometry relative="1" as="geometry" />
        </mxCell>
        <mxCell id="a4meFcf4SPbzr9SaP956-32" value="&lt;font color=&quot;#000000&quot; style=&quot;font-size: 12px;&quot;&gt;Yes&lt;/font&gt;" style="edgeLabel;html=1;align=center;verticalAlign=middle;resizable=0;points=[];fontColor=#EEEEEE;" parent="a4meFcf4SPbzr9SaP956-31" vertex="1" connectable="0">
          <mxGeometry x="-0.3119" y="2" relative="1" as="geometry">
            <mxPoint x="1" y="1" as="offset" />
          </mxGeometry>
        </mxCell>
        <mxCell id="a4meFcf4SPbzr9SaP956-34" style="edgeStyle=orthogonalEdgeStyle;rounded=0;orthogonalLoop=1;jettySize=auto;html=1;exitX=0.5;exitY=1;exitDx=0;exitDy=0;entryX=0.5;entryY=0;entryDx=0;entryDy=0;strokeColor=#0B4D6A;" parent="1" source="a4meFcf4SPbzr9SaP956-29" target="a4meFcf4SPbzr9SaP956-33" edge="1">
          <mxGeometry relative="1" as="geometry" />
        </mxCell>
        <mxCell id="a4meFcf4SPbzr9SaP956-35" value="&lt;font color=&quot;#000000&quot; style=&quot;font-size: 12px;&quot;&gt;No&lt;/font&gt;" style="edgeLabel;html=1;align=center;verticalAlign=middle;resizable=0;points=[];fontColor=#EEEEEE;" parent="a4meFcf4SPbzr9SaP956-34" vertex="1" connectable="0">
          <mxGeometry x="-0.0502" y="3" relative="1" as="geometry">
            <mxPoint x="-3" y="-3" as="offset" />
          </mxGeometry>
        </mxCell>
        <mxCell id="a4meFcf4SPbzr9SaP956-29" value="Generate Plot?" style="rhombus;whiteSpace=wrap;html=1;strokeColor=#BAC8D3;fontColor=#EEEEEE;fillColor=#09555B;" parent="1" vertex="1">
          <mxGeometry x="325" y="1130" width="80" height="80" as="geometry" />
        </mxCell>
        <mxCell id="a4meFcf4SPbzr9SaP956-36" style="edgeStyle=orthogonalEdgeStyle;rounded=0;orthogonalLoop=1;jettySize=auto;html=1;exitX=0.5;exitY=1;exitDx=0;exitDy=0;entryX=1;entryY=0.5;entryDx=0;entryDy=0;strokeColor=#0B4D6A;" parent="1" source="a4meFcf4SPbzr9SaP956-30" target="a4meFcf4SPbzr9SaP956-33" edge="1">
          <mxGeometry relative="1" as="geometry" />
        </mxCell>
        <mxCell id="a4meFcf4SPbzr9SaP956-30" value="WritePlotFile" style="shape=process;whiteSpace=wrap;html=1;backgroundOutline=1;strokeColor=#BAC8D3;fontColor=#EEEEEE;fillColor=#09555B;" parent="1" vertex="1">
          <mxGeometry x="449" y="1220" width="130" height="60" as="geometry" />
        </mxCell>
        <mxCell id="a4meFcf4SPbzr9SaP956-53" style="edgeStyle=orthogonalEdgeStyle;rounded=0;orthogonalLoop=1;jettySize=auto;html=1;exitX=0.5;exitY=1;exitDx=0;exitDy=0;entryX=0.5;entryY=0;entryDx=0;entryDy=0;strokeColor=#0B4D6A;" parent="1" source="a4meFcf4SPbzr9SaP956-33" target="a4meFcf4SPbzr9SaP956-37" edge="1">
          <mxGeometry relative="1" as="geometry" />
        </mxCell>
        <mxCell id="a4meFcf4SPbzr9SaP956-33" value="timeStepWithSubcycling" style="shape=process;whiteSpace=wrap;html=1;backgroundOutline=1;strokeColor=#BAC8D3;fontColor=#EEEEEE;fillColor=#09555B;" parent="1" vertex="1">
          <mxGeometry x="281" y="1300" width="168" height="60" as="geometry" />
        </mxCell>
        <mxCell id="a4meFcf4SPbzr9SaP956-51" style="edgeStyle=orthogonalEdgeStyle;rounded=0;orthogonalLoop=1;jettySize=auto;html=1;exitX=0.5;exitY=1;exitDx=0;exitDy=0;entryX=0.5;entryY=0;entryDx=0;entryDy=0;strokeColor=#0B4D6A;" parent="1" source="a4meFcf4SPbzr9SaP956-37" target="a4meFcf4SPbzr9SaP956-41" edge="1">
          <mxGeometry relative="1" as="geometry">
            <mxPoint x="365" y="1590" as="sourcePoint" />
          </mxGeometry>
        </mxCell>
        <mxCell id="a4meFcf4SPbzr9SaP956-52" value="&lt;font color=&quot;#000000&quot; style=&quot;font-size: 12px;&quot;&gt;No&lt;/font&gt;" style="edgeLabel;html=1;align=center;verticalAlign=middle;resizable=0;points=[];fontColor=#EEEEEE;" parent="a4meFcf4SPbzr9SaP956-51" vertex="1" connectable="0">
          <mxGeometry x="0.0382" y="-2" relative="1" as="geometry">
            <mxPoint x="2" y="-7" as="offset" />
          </mxGeometry>
        </mxCell>
        <mxCell id="a4meFcf4SPbzr9SaP956-190" style="edgeStyle=orthogonalEdgeStyle;rounded=0;orthogonalLoop=1;jettySize=auto;html=1;exitX=1;exitY=0.5;exitDx=0;exitDy=0;entryX=0;entryY=0.5;entryDx=0;entryDy=0;strokeColor=#0B4D6A;" parent="1" source="a4meFcf4SPbzr9SaP956-37" target="a4meFcf4SPbzr9SaP956-38" edge="1">
          <mxGeometry relative="1" as="geometry" />
        </mxCell>
        <mxCell id="a4meFcf4SPbzr9SaP956-37" value="Regrid?" style="rhombus;whiteSpace=wrap;html=1;strokeColor=#BAC8D3;fontColor=#EEEEEE;fillColor=#09555B;" parent="1" vertex="1">
          <mxGeometry x="325" y="1410" width="80" height="80" as="geometry" />
        </mxCell>
        <mxCell id="a4meFcf4SPbzr9SaP956-197" style="edgeStyle=orthogonalEdgeStyle;rounded=0;orthogonalLoop=1;jettySize=auto;html=1;exitX=1;exitY=0.5;exitDx=0;exitDy=0;entryX=0;entryY=0.5;entryDx=0;entryDy=0;strokeColor=#0B4D6A;" parent="1" source="a4meFcf4SPbzr9SaP956-38" target="a4meFcf4SPbzr9SaP956-187" edge="1">
          <mxGeometry relative="1" as="geometry" />
        </mxCell>
        <mxCell id="sRemLPWvTzVdHOXJgGkG-5" value="" style="edgeStyle=orthogonalEdgeStyle;rounded=0;orthogonalLoop=1;jettySize=auto;html=1;strokeColor=#0B4D6A;" edge="1" parent="1" source="a4meFcf4SPbzr9SaP956-38" target="a4meFcf4SPbzr9SaP956-37">
          <mxGeometry relative="1" as="geometry" />
        </mxCell>
        <mxCell id="sRemLPWvTzVdHOXJgGkG-10" value="&lt;font style=&quot;font-size: 12px;&quot;&gt;Yes&lt;/font&gt;" style="edgeLabel;html=1;align=center;verticalAlign=middle;resizable=0;points=[];" vertex="1" connectable="0" parent="sRemLPWvTzVdHOXJgGkG-5">
          <mxGeometry x="-0.0624" y="-2" relative="1" as="geometry">
            <mxPoint as="offset" />
          </mxGeometry>
        </mxCell>
        <mxCell id="a4meFcf4SPbzr9SaP956-38" value="regrid" style="shape=process;whiteSpace=wrap;html=1;backgroundOutline=1;strokeColor=#BAC8D3;fontColor=#EEEEEE;fillColor=#09555B;" parent="1" vertex="1">
          <mxGeometry x="476" y="1420" width="120" height="60" as="geometry" />
        </mxCell>
        <mxCell id="a4meFcf4SPbzr9SaP956-54" style="edgeStyle=orthogonalEdgeStyle;rounded=0;orthogonalLoop=1;jettySize=auto;html=1;exitX=0.5;exitY=1;exitDx=0;exitDy=0;entryX=0.5;entryY=0;entryDx=0;entryDy=0;strokeColor=#0B4D6A;" parent="1" source="a4meFcf4SPbzr9SaP956-41" target="a4meFcf4SPbzr9SaP956-44" edge="1">
          <mxGeometry relative="1" as="geometry" />
        </mxCell>
        <mxCell id="a4meFcf4SPbzr9SaP956-41" value="AdvanceGridAtLevel" style="shape=process;whiteSpace=wrap;html=1;backgroundOutline=1;strokeColor=#BAC8D3;fontColor=#EEEEEE;fillColor=#09555B;" parent="1" vertex="1">
          <mxGeometry x="293" y="1640" width="144" height="60" as="geometry" />
        </mxCell>
        <mxCell id="a4meFcf4SPbzr9SaP956-55" style="edgeStyle=orthogonalEdgeStyle;rounded=0;orthogonalLoop=1;jettySize=auto;html=1;exitX=0.5;exitY=1;exitDx=0;exitDy=0;entryX=0.5;entryY=0;entryDx=0;entryDy=0;strokeColor=#0B4D6A;" parent="1" source="a4meFcf4SPbzr9SaP956-44" target="a4meFcf4SPbzr9SaP956-45" edge="1">
          <mxGeometry relative="1" as="geometry" />
        </mxCell>
        <mxCell id="a4meFcf4SPbzr9SaP956-44" value="FillPatch" style="shape=process;whiteSpace=wrap;html=1;backgroundOutline=1;strokeColor=#BAC8D3;fontColor=#EEEEEE;fillColor=#09555B;" parent="1" vertex="1">
          <mxGeometry x="305" y="1740" width="120" height="60" as="geometry" />
        </mxCell>
        <mxCell id="a4meFcf4SPbzr9SaP956-179" style="edgeStyle=orthogonalEdgeStyle;rounded=0;orthogonalLoop=1;jettySize=auto;html=1;exitX=0.5;exitY=1;exitDx=0;exitDy=0;entryX=0.5;entryY=0;entryDx=0;entryDy=0;strokeColor=#0B4D6A;" parent="1" source="a4meFcf4SPbzr9SaP956-45" target="a4meFcf4SPbzr9SaP956-47" edge="1">
          <mxGeometry relative="1" as="geometry" />
        </mxCell>
        <mxCell id="a4meFcf4SPbzr9SaP956-45" value="GetData" style="shape=process;whiteSpace=wrap;html=1;backgroundOutline=1;strokeColor=#BAC8D3;fontColor=#EEEEEE;fillColor=#09555B;" parent="1" vertex="1">
          <mxGeometry x="305" y="1840" width="120" height="60" as="geometry" />
        </mxCell>
        <mxCell id="a4meFcf4SPbzr9SaP956-58" style="edgeStyle=orthogonalEdgeStyle;rounded=0;orthogonalLoop=1;jettySize=auto;html=1;exitX=1;exitY=0.5;exitDx=0;exitDy=0;entryX=0.5;entryY=0;entryDx=0;entryDy=0;strokeColor=#0B4D6A;" parent="1" source="a4meFcf4SPbzr9SaP956-47" target="a4meFcf4SPbzr9SaP956-48" edge="1">
          <mxGeometry relative="1" as="geometry" />
        </mxCell>
        <mxCell id="a4meFcf4SPbzr9SaP956-60" value="&lt;font color=&quot;#000000&quot; style=&quot;font-size: 12px;&quot;&gt;No&lt;/font&gt;" style="edgeLabel;html=1;align=center;verticalAlign=middle;resizable=0;points=[];fontColor=#EEEEEE;" parent="a4meFcf4SPbzr9SaP956-58" vertex="1" connectable="0">
          <mxGeometry x="-0.6241" y="2" relative="1" as="geometry">
            <mxPoint x="2" y="2" as="offset" />
          </mxGeometry>
        </mxCell>
        <mxCell id="a4meFcf4SPbzr9SaP956-180" style="edgeStyle=orthogonalEdgeStyle;rounded=0;orthogonalLoop=1;jettySize=auto;html=1;exitX=0;exitY=0.5;exitDx=0;exitDy=0;entryX=0.5;entryY=0;entryDx=0;entryDy=0;strokeColor=#0B4D6A;" parent="1" source="a4meFcf4SPbzr9SaP956-47" target="a4meFcf4SPbzr9SaP956-61" edge="1">
          <mxGeometry relative="1" as="geometry" />
        </mxCell>
        <mxCell id="a4meFcf4SPbzr9SaP956-181" value="&lt;font color=&quot;#000000&quot; style=&quot;font-size: 12px;&quot;&gt;Yes&lt;/font&gt;" style="edgeLabel;html=1;align=center;verticalAlign=middle;resizable=0;points=[];fontColor=#EEEEEE;" parent="a4meFcf4SPbzr9SaP956-180" vertex="1" connectable="0">
          <mxGeometry x="-0.6051" relative="1" as="geometry">
            <mxPoint x="1" as="offset" />
          </mxGeometry>
        </mxCell>
        <mxCell id="a4meFcf4SPbzr9SaP956-47" value="current level == 0?" style="rhombus;whiteSpace=wrap;html=1;strokeColor=#BAC8D3;fontColor=#EEEEEE;fillColor=#09555B;" parent="1" vertex="1">
          <mxGeometry x="310" y="1940" width="110" height="110" as="geometry" />
        </mxCell>
        <mxCell id="a4meFcf4SPbzr9SaP956-59" style="edgeStyle=orthogonalEdgeStyle;rounded=0;orthogonalLoop=1;jettySize=auto;html=1;exitX=0.5;exitY=1;exitDx=0;exitDy=0;entryX=0.5;entryY=0;entryDx=0;entryDy=0;strokeColor=#0B4D6A;" parent="1" source="a4meFcf4SPbzr9SaP956-48" target="a4meFcf4SPbzr9SaP956-57" edge="1">
          <mxGeometry relative="1" as="geometry" />
        </mxCell>
        <mxCell id="a4meFcf4SPbzr9SaP956-48" value="FillPatchTwoLevels" style="shape=process;whiteSpace=wrap;html=1;backgroundOutline=1;strokeColor=#BAC8D3;fontColor=#EEEEEE;fillColor=#09555B;" parent="1" vertex="1">
          <mxGeometry x="421" y="2070" width="140" height="60" as="geometry" />
        </mxCell>
        <mxCell id="a4meFcf4SPbzr9SaP956-68" style="edgeStyle=orthogonalEdgeStyle;rounded=0;orthogonalLoop=1;jettySize=auto;html=1;exitX=0.5;exitY=1;exitDx=0;exitDy=0;entryX=0.75;entryY=0;entryDx=0;entryDy=0;strokeColor=#0B4D6A;" parent="1" source="a4meFcf4SPbzr9SaP956-57" target="a4meFcf4SPbzr9SaP956-65" edge="1">
          <mxGeometry relative="1" as="geometry" />
        </mxCell>
        <mxCell id="a4meFcf4SPbzr9SaP956-57" value="FixFinePatch" style="shape=process;whiteSpace=wrap;html=1;backgroundOutline=1;strokeColor=#BAC8D3;fontColor=#EEEEEE;fillColor=#09555B;" parent="1" vertex="1">
          <mxGeometry x="431" y="2170" width="120" height="60" as="geometry" />
        </mxCell>
        <mxCell id="a4meFcf4SPbzr9SaP956-67" style="edgeStyle=orthogonalEdgeStyle;rounded=0;orthogonalLoop=1;jettySize=auto;html=1;exitX=0.5;exitY=1;exitDx=0;exitDy=0;entryX=0.25;entryY=0;entryDx=0;entryDy=0;strokeColor=#0B4D6A;" parent="1" source="a4meFcf4SPbzr9SaP956-61" target="a4meFcf4SPbzr9SaP956-65" edge="1">
          <mxGeometry relative="1" as="geometry" />
        </mxCell>
        <mxCell id="a4meFcf4SPbzr9SaP956-61" value="FillPatchSingleLevel" style="shape=process;whiteSpace=wrap;html=1;backgroundOutline=1;strokeColor=#BAC8D3;fontColor=#EEEEEE;fillColor=#09555B;" parent="1" vertex="1">
          <mxGeometry x="160" y="2070" width="150" height="60" as="geometry" />
        </mxCell>
        <mxCell id="a4meFcf4SPbzr9SaP956-196" style="edgeStyle=orthogonalEdgeStyle;rounded=0;orthogonalLoop=1;jettySize=auto;html=1;exitX=0.5;exitY=1;exitDx=0;exitDy=0;entryX=0.5;entryY=0;entryDx=0;entryDy=0;strokeColor=#0B4D6A;" parent="1" source="a4meFcf4SPbzr9SaP956-65" target="a4meFcf4SPbzr9SaP956-66" edge="1">
          <mxGeometry relative="1" as="geometry" />
        </mxCell>
        <mxCell id="a4meFcf4SPbzr9SaP956-65" value="xSweep" style="shape=process;whiteSpace=wrap;html=1;backgroundOutline=1;strokeColor=#BAC8D3;fontColor=#EEEEEE;fillColor=#09555B;" parent="1" vertex="1">
          <mxGeometry x="300" y="2270" width="120" height="60" as="geometry" />
        </mxCell>
        <mxCell id="a4meFcf4SPbzr9SaP956-75" style="edgeStyle=orthogonalEdgeStyle;rounded=0;orthogonalLoop=1;jettySize=auto;html=1;exitX=0.5;exitY=1;exitDx=0;exitDy=0;entryX=0.5;entryY=0;entryDx=0;entryDy=0;strokeColor=#0B4D6A;" parent="1" source="a4meFcf4SPbzr9SaP956-66" target="a4meFcf4SPbzr9SaP956-72" edge="1">
          <mxGeometry relative="1" as="geometry" />
        </mxCell>
        <mxCell id="a4meFcf4SPbzr9SaP956-66" value="ySweep" style="shape=process;whiteSpace=wrap;html=1;backgroundOutline=1;strokeColor=#BAC8D3;fontColor=#EEEEEE;fillColor=#09555B;" parent="1" vertex="1">
          <mxGeometry x="300" y="2370" width="120" height="60" as="geometry" />
        </mxCell>
        <mxCell id="a4meFcf4SPbzr9SaP956-182" style="edgeStyle=orthogonalEdgeStyle;rounded=0;orthogonalLoop=1;jettySize=auto;html=1;exitX=0;exitY=0.5;exitDx=0;exitDy=0;entryX=0;entryY=0.5;entryDx=0;entryDy=0;strokeColor=#0B4D6A;" parent="1" source="a4meFcf4SPbzr9SaP956-72" target="a4meFcf4SPbzr9SaP956-27" edge="1">
          <mxGeometry relative="1" as="geometry" />
        </mxCell>
        <mxCell id="a4meFcf4SPbzr9SaP956-72" value="AverageDownTo" style="shape=process;whiteSpace=wrap;html=1;backgroundOutline=1;strokeColor=#BAC8D3;fontColor=#EEEEEE;fillColor=#09555B;" parent="1" vertex="1">
          <mxGeometry x="300" y="2470" width="120" height="60" as="geometry" />
        </mxCell>
        <mxCell id="a4meFcf4SPbzr9SaP956-80" style="edgeStyle=orthogonalEdgeStyle;rounded=0;orthogonalLoop=1;jettySize=auto;html=1;exitX=0.5;exitY=1;exitDx=0;exitDy=0;entryX=0.5;entryY=0;entryDx=0;entryDy=0;strokeColor=#0B4D6A;" parent="1" source="a4meFcf4SPbzr9SaP956-77" target="a4meFcf4SPbzr9SaP956-29" edge="1">
          <mxGeometry relative="1" as="geometry" />
        </mxCell>
        <mxCell id="a4meFcf4SPbzr9SaP956-81" value="&lt;font color=&quot;#000000&quot; style=&quot;font-size: 12px;&quot;&gt;Yes&lt;/font&gt;" style="edgeLabel;html=1;align=center;verticalAlign=middle;resizable=0;points=[];fontColor=#EEEEEE;" parent="a4meFcf4SPbzr9SaP956-80" vertex="1" connectable="0">
          <mxGeometry x="-0.9174" y="-1" relative="1" as="geometry">
            <mxPoint x="1" y="18" as="offset" />
          </mxGeometry>
        </mxCell>
        <mxCell id="a4meFcf4SPbzr9SaP956-83" style="edgeStyle=orthogonalEdgeStyle;rounded=0;orthogonalLoop=1;jettySize=auto;html=1;exitX=1;exitY=0.5;exitDx=0;exitDy=0;entryX=0;entryY=0.5;entryDx=0;entryDy=0;strokeColor=#0B4D6A;" parent="1" source="a4meFcf4SPbzr9SaP956-77" target="a4meFcf4SPbzr9SaP956-82" edge="1">
          <mxGeometry relative="1" as="geometry" />
        </mxCell>
        <mxCell id="a4meFcf4SPbzr9SaP956-84" value="&lt;font color=&quot;#000000&quot; style=&quot;font-size: 12px;&quot;&gt;No&lt;/font&gt;" style="edgeLabel;html=1;align=center;verticalAlign=middle;resizable=0;points=[];fontColor=#EEEEEE;" parent="a4meFcf4SPbzr9SaP956-83" vertex="1" connectable="0">
          <mxGeometry x="0.02" y="-3" relative="1" as="geometry">
            <mxPoint x="-3" y="-3" as="offset" />
          </mxGeometry>
        </mxCell>
        <mxCell id="a4meFcf4SPbzr9SaP956-77" value="currentTime &amp;lt; simulationTime?" style="rhombus;whiteSpace=wrap;html=1;strokeColor=#BAC8D3;fontColor=#EEEEEE;fillColor=#09555B;" parent="1" vertex="1">
          <mxGeometry x="305" y="970" width="120" height="120" as="geometry" />
        </mxCell>
        <mxCell id="a4meFcf4SPbzr9SaP956-82" value="&lt;font style=&quot;font-size: 20px;&quot;&gt;Finalize&lt;/font&gt;" style="ellipse;whiteSpace=wrap;html=1;labelBackgroundColor=none;fillColor=#09555B;strokeColor=#BAC8D3;fontColor=#EEEEEE;" parent="1" vertex="1">
          <mxGeometry x="521" y="1005" width="116" height="50" as="geometry" />
        </mxCell>
        <mxCell id="a4meFcf4SPbzr9SaP956-178" style="edgeStyle=orthogonalEdgeStyle;rounded=0;orthogonalLoop=1;jettySize=auto;html=1;exitX=0;exitY=0.5;exitDx=0;exitDy=0;entryX=0.25;entryY=0;entryDx=0;entryDy=0;strokeColor=#0B4D6A;" parent="1" source="a4meFcf4SPbzr9SaP956-33" target="a4meFcf4SPbzr9SaP956-33" edge="1">
          <mxGeometry relative="1" as="geometry">
            <Array as="points">
              <mxPoint x="241" y="1330" />
              <mxPoint x="241" y="1260" />
              <mxPoint x="323" y="1260" />
            </Array>
          </mxGeometry>
        </mxCell>
        <mxCell id="sRemLPWvTzVdHOXJgGkG-4" style="edgeStyle=orthogonalEdgeStyle;rounded=0;orthogonalLoop=1;jettySize=auto;html=1;exitX=0.5;exitY=1;exitDx=0;exitDy=0;entryX=0.5;entryY=0;entryDx=0;entryDy=0;strokeColor=#09555B;" edge="1" parent="1" source="a4meFcf4SPbzr9SaP956-187" target="a4meFcf4SPbzr9SaP956-188">
          <mxGeometry relative="1" as="geometry" />
        </mxCell>
        <mxCell id="a4meFcf4SPbzr9SaP956-187" value="MakeNewGrids" style="shape=process;whiteSpace=wrap;html=1;backgroundOutline=1;strokeColor=#BAC8D3;fontColor=#EEEEEE;fillColor=#09555B;" parent="1" vertex="1">
          <mxGeometry x="637" y="1420" width="120" height="60" as="geometry" />
        </mxCell>
        <mxCell id="sRemLPWvTzVdHOXJgGkG-8" style="edgeStyle=orthogonalEdgeStyle;rounded=0;orthogonalLoop=1;jettySize=auto;html=1;exitX=0.5;exitY=1;exitDx=0;exitDy=0;entryX=0.5;entryY=0;entryDx=0;entryDy=0;strokeColor=#09555B;" edge="1" parent="1" source="a4meFcf4SPbzr9SaP956-188" target="sRemLPWvTzVdHOXJgGkG-7">
          <mxGeometry relative="1" as="geometry" />
        </mxCell>
        <mxCell id="a4meFcf4SPbzr9SaP956-188" value="&lt;font style=&quot;font-size: 20px;&quot;&gt;ErrorEst&lt;/font&gt;" style="shape=process;whiteSpace=wrap;html=1;backgroundOutline=1;strokeColor=#BAC8D3;fontColor=#EEEEEE;fillColor=#09555B;" parent="1" vertex="1">
          <mxGeometry x="637" y="1530" width="120" height="60" as="geometry" />
        </mxCell>
        <mxCell id="a4meFcf4SPbzr9SaP956-195" style="edgeStyle=orthogonalEdgeStyle;rounded=0;orthogonalLoop=1;jettySize=auto;html=1;exitX=0;exitY=0.5;exitDx=0;exitDy=0;strokeColor=#0B4D6A;" parent="1" source="a4meFcf4SPbzr9SaP956-189" target="a4meFcf4SPbzr9SaP956-41" edge="1">
          <mxGeometry relative="1" as="geometry" />
        </mxCell>
        <mxCell id="a4meFcf4SPbzr9SaP956-189" value="ClearLevel" style="shape=process;whiteSpace=wrap;html=1;backgroundOutline=1;strokeColor=#BAC8D3;fontColor=#EEEEEE;fillColor=#09555B;" parent="1" vertex="1">
          <mxGeometry x="476" y="1640" width="120" height="60" as="geometry" />
        </mxCell>
        <mxCell id="sRemLPWvTzVdHOXJgGkG-9" style="edgeStyle=orthogonalEdgeStyle;rounded=0;orthogonalLoop=1;jettySize=auto;html=1;exitX=0;exitY=0.5;exitDx=0;exitDy=0;entryX=1;entryY=0.5;entryDx=0;entryDy=0;strokeColor=#09555B;" edge="1" parent="1" source="sRemLPWvTzVdHOXJgGkG-7" target="a4meFcf4SPbzr9SaP956-189">
          <mxGeometry relative="1" as="geometry" />
        </mxCell>
        <mxCell id="sRemLPWvTzVdHOXJgGkG-7" value="&lt;font style=&quot;font-size: 12px;&quot;&gt;RemakeLevel&lt;/font&gt;" style="shape=process;whiteSpace=wrap;html=1;backgroundOutline=1;strokeColor=#BAC8D3;fontColor=#EEEEEE;fillColor=#09555B;" vertex="1" parent="1">
          <mxGeometry x="637" y="1640" width="120" height="60" as="geometry" />
        </mxCell>
      </root>
    </mxGraphModel>
  </diagram>
</mxfile>
